# xmcd
#
# Track frame offsets: 
#        150
#        14664
#        36150
#        52793
#        74039
#        89039
#        100256
#        117178
#        135183
#        146110
#        162268
#        171727
#        184696
#        202255
#        219064
#
# Disc length: 3164 seconds
#
# Revision: 0
# Processed by: cddbd v1.5.2PL0 Copyright (c) Steve Scherf et al.
# Submitted via: ExactAudioCopy v0.95a3
#
DISCID=e10c5a0f
DTITLE=Billy's Band - Чужие (альбом кавер-версий)
DYEAR=2007
DGENRE=
TTITLE0=Зимний сон
TTITLE1=За тех, кто в море
TTITLE2=Вася
TTITLE3=Песня-сказка о нечисти
TTITLE4=Песня кота и пирата
TTITLE5=In the hood
TTITLE6=Рассвет 
TTITLE7=Родительский дом
TTITLE8=Любовь
TTITLE9=Поезд в огне
TTITLE10=Пошук
TTITLE11=Битум
TTITLE12=Somebody
TTITLE13=The one that got away (rap version)
TTITLE14=Голос брехуна
EXTD=
EXTT0=
EXTT1=
EXTT2=
EXTT3=
EXTT4=
EXTT5=
EXTT6=
EXTT7=
EXTT8=
EXTT9=
EXTT10=
EXTT11=
EXTT12=
EXTT13=
EXTT14=
PLAYORDER=
